# xmcd CD database file
#
# Track frame offsets:
#	150
#	34990
#	59704
#	92039
#	119962
#	136030
#	147335
#	178913
#	202771
#	222601
#
# Disc length: 4128 seconds
#
# Revision: 8
# Processed by: cddbd v1.5.2PL0 Copyright (c) Steve Scherf et al.
# Submitted via: CDex 1.51
#
DISCID=a4101e0a
DTITLE=Domenico Cimarosa - Il Matrimonio Segreto - Acte II  (Gabriele Bellini, Orchestra of Eastern Netherlands)
DYEAR=1900
DGENRE=Classique
TTITLE0=Acte II - Duetto - Se fiato in corpo avete ...
TTITLE1=Acte II - Terzetto - Sento, oimè! Che mi vien male ...
TTITLE2=Acte II - Aria - Pria Che spunti in ciel l'aurora ...
TTITLE3=Acte II - Aria - Son lunatico, bilioso ...
TTITLE4=Acte II - Terzetto - Cosa Farete ¿ Via, su, parlate ... 
TTITLE5=Acte II - Recitativo accompagnato - Come tarcerlo poi ...
TTITLE6=Acte II - Quintetto - Deh! Lasciate ch'io respiri ...
TTITLE7=Acte II - Aria - Se son vendicata ...
TTITLE8=Acte II - Acte II - Duetto - Il parlar di Carolina ...
TTITLE9=Acte II - Finale II - Deh, ti conforta, o cara ...
EXTD=
EXTT0=
EXTT1=
EXTT2=
EXTT3=
EXTT4=
EXTT5=
EXTT6=
EXTT7=
EXTT8=
EXTT9=
PLAYORDER=
